<svg xmlns="http://www.w3.org/2000/svg" viewBox="0 0 100 100" preserveAspectRatio="xMidYMid" width="208" height="208" style="shape-rendering: auto; display: block; background: transparent;" xmlns:xlink="http://www.w3.org/1999/xlink"><g><g transform="rotate(0 50 50)">
  <rect fill="#fabd3d" height="7" width="1" ry="1.96" rx="0.5" y="27.5" x="49.5">
    <animate repeatCount="indefinite" begin="-1.3117283950617284s" dur="1.3888888888888888s" keyTimes="0;1" values="1;0" attributeName="opacity"></animate>
  </rect>
</g><g transform="rotate(20 50 50)">
  <rect fill="#fabd3d" height="7" width="1" ry="1.96" rx="0.5" y="27.5" x="49.5">
    <animate repeatCount="indefinite" begin="-1.234567901234568s" dur="1.3888888888888888s" keyTimes="0;1" values="1;0" attributeName="opacity"></animate>
  </rect>
</g><g transform="rotate(40 50 50)">
  <rect fill="#fabd3d" height="7" width="1" ry="1.96" rx="0.5" y="27.5" x="49.5">
    <animate repeatCount="indefinite" begin="-1.1574074074074074s" dur="1.3888888888888888s" keyTimes="0;1" values="1;0" attributeName="opacity"></animate>
  </rect>
</g><g transform="rotate(60 50 50)">
  <rect fill="#fabd3d" height="7" width="1" ry="1.96" rx="0.5" y="27.5" x="49.5">
    <animate repeatCount="indefinite" begin="-1.080246913580247s" dur="1.3888888888888888s" keyTimes="0;1" values="1;0" attributeName="opacity"></animate>
  </rect>
</g><g transform="rotate(80 50 50)">
  <rect fill="#fabd3d" height="7" width="1" ry="1.96" rx="0.5" y="27.5" x="49.5">
    <animate repeatCount="indefinite" begin="-1.0030864197530864s" dur="1.3888888888888888s" keyTimes="0;1" values="1;0" attributeName="opacity"></animate>
  </rect>
</g><g transform="rotate(100 50 50)">
  <rect fill="#fabd3d" height="7" width="1" ry="1.96" rx="0.5" y="27.5" x="49.5">
    <animate repeatCount="indefinite" begin="-0.925925925925926s" dur="1.3888888888888888s" keyTimes="0;1" values="1;0" attributeName="opacity"></animate>
  </rect>
</g><g transform="rotate(120 50 50)">
  <rect fill="#fabd3d" height="7" width="1" ry="1.96" rx="0.5" y="27.5" x="49.5">
    <animate repeatCount="indefinite" begin="-0.8487654320987655s" dur="1.3888888888888888s" keyTimes="0;1" values="1;0" attributeName="opacity"></animate>
  </rect>
</g><g transform="rotate(140 50 50)">
  <rect fill="#fabd3d" height="7" width="1" ry="1.96" rx="0.5" y="27.5" x="49.5">
    <animate repeatCount="indefinite" begin="-0.771604938271605s" dur="1.3888888888888888s" keyTimes="0;1" values="1;0" attributeName="opacity"></animate>
  </rect>
</g><g transform="rotate(160 50 50)">
  <rect fill="#fabd3d" height="7" width="1" ry="1.96" rx="0.5" y="27.5" x="49.5">
    <animate repeatCount="indefinite" begin="-0.6944444444444445s" dur="1.3888888888888888s" keyTimes="0;1" values="1;0" attributeName="opacity"></animate>
  </rect>
</g><g transform="rotate(180 50 50)">
  <rect fill="#fabd3d" height="7" width="1" ry="1.96" rx="0.5" y="27.5" x="49.5">
    <animate repeatCount="indefinite" begin="-0.617283950617284s" dur="1.3888888888888888s" keyTimes="0;1" values="1;0" attributeName="opacity"></animate>
  </rect>
</g><g transform="rotate(200 50 50)">
  <rect fill="#fabd3d" height="7" width="1" ry="1.96" rx="0.5" y="27.5" x="49.5">
    <animate repeatCount="indefinite" begin="-0.5401234567901235s" dur="1.3888888888888888s" keyTimes="0;1" values="1;0" attributeName="opacity"></animate>
  </rect>
</g><g transform="rotate(220 50 50)">
  <rect fill="#fabd3d" height="7" width="1" ry="1.96" rx="0.5" y="27.5" x="49.5">
    <animate repeatCount="indefinite" begin="-0.462962962962963s" dur="1.3888888888888888s" keyTimes="0;1" values="1;0" attributeName="opacity"></animate>
  </rect>
</g><g transform="rotate(240 50 50)">
  <rect fill="#fabd3d" height="7" width="1" ry="1.96" rx="0.5" y="27.5" x="49.5">
    <animate repeatCount="indefinite" begin="-0.3858024691358025s" dur="1.3888888888888888s" keyTimes="0;1" values="1;0" attributeName="opacity"></animate>
  </rect>
</g><g transform="rotate(260 50 50)">
  <rect fill="#fabd3d" height="7" width="1" ry="1.96" rx="0.5" y="27.5" x="49.5">
    <animate repeatCount="indefinite" begin="-0.308641975308642s" dur="1.3888888888888888s" keyTimes="0;1" values="1;0" attributeName="opacity"></animate>
  </rect>
</g><g transform="rotate(280 50 50)">
  <rect fill="#fabd3d" height="7" width="1" ry="1.96" rx="0.5" y="27.5" x="49.5">
    <animate repeatCount="indefinite" begin="-0.2314814814814815s" dur="1.3888888888888888s" keyTimes="0;1" values="1;0" attributeName="opacity"></animate>
  </rect>
</g><g transform="rotate(300 50 50)">
  <rect fill="#fabd3d" height="7" width="1" ry="1.96" rx="0.5" y="27.5" x="49.5">
    <animate repeatCount="indefinite" begin="-0.154320987654321s" dur="1.3888888888888888s" keyTimes="0;1" values="1;0" attributeName="opacity"></animate>
  </rect>
</g><g transform="rotate(320 50 50)">
  <rect fill="#fabd3d" height="7" width="1" ry="1.96" rx="0.5" y="27.5" x="49.5">
    <animate repeatCount="indefinite" begin="-0.0771604938271605s" dur="1.3888888888888888s" keyTimes="0;1" values="1;0" attributeName="opacity"></animate>
  </rect>
</g><g transform="rotate(340 50 50)">
  <rect fill="#fabd3d" height="7" width="1" ry="1.96" rx="0.5" y="27.5" x="49.5">
    <animate repeatCount="indefinite" begin="0s" dur="1.3888888888888888s" keyTimes="0;1" values="1;0" attributeName="opacity"></animate>
  </rect>
</g><g></g></g><!-- [ldio] generated by https://loading.io --></svg>